<?xml version="1.0" standalone="no"?>
<!DOCTYPE svg PUBLIC "-//W3C//DTD SVG 20010904//EN"
 "http://www.w3.org/TR/2001/REC-SVG-20010904/DTD/svg10.dtd">
<svg version="1.0" xmlns="http://www.w3.org/2000/svg"
 width="1024.000000pt" height="1024.000000pt" viewBox="0 0 1024.000000 1024.000000"
 preserveAspectRatio="xMidYMid meet">
<metadata>
Created by potrace 1.14, written by Peter Selinger 2001-2017
</metadata>
<g transform="translate(0.000000,1024.000000) scale(0.100000,-0.100000)"
fill="#000000" stroke="none">
<path d="M10 5115 l0 -5115 5115 0 5115 0 0 5115 0 5115 -5115 0 -5115 0 0
-5115z m8445 4165 c237 -225 438 -422 447 -437 17 -27 18 -226 18 -3739 0
-2611 -3 -3720 -11 -3742 -7 -20 -159 -174 -446 -451 -240 -232 -439 -421
-442 -421 -7 0 -150 138 -1376 1325 -324 314 -948 915 -1385 1335 -437 421
-946 911 -1130 1090 -184 179 -405 393 -490 474 -85 81 -161 159 -168 173 -17
31 -29 163 -15 163 6 0 777 -738 1714 -1640 l1704 -1640 3 1661 c1 913 1 2406
0 3316 l-3 1656 -810 -786 -810 -786 -43 42 -42 41 20 21 c105 105 2826 2754
2830 2754 3 1 199 -183 435 -409z m-5368 -431 c1579 -1537 2159 -2099 3076
-2978 349 -335 586 -569 597 -591 23 -44 35 -127 23 -156 -7 -18 -211 175
-1713 1623 l-1705 1643 -3 -1651 c-1 -908 -1 -2391 0 -3297 l3 -1646 793 772
c436 425 797 772 801 772 5 0 27 -17 50 -37 l42 -38 -1222 -1200 c-672 -660
-1308 -1284 -1414 -1387 l-193 -188 -109 102 c-409 384 -770 735 -780 757 -9
20 -12 864 -12 3736 -1 2041 2 3720 5 3733 7 24 891 865 905 860 4 -2 390
-375 856 -829z m1788 -2164 c737 -710 1459 -1405 1605 -1544 146 -139 275
-264 288 -278 19 -21 22 -35 22 -104 0 -43 -3 -79 -8 -79 -7 0 -457 429 -1382
1319 -781 752 -1659 1599 -1810 1748 l-135 132 -4 88 -3 87 43 -39 c24 -21
647 -620 1384 -1330z m1915 1294 c0 -39 -4 -78 -9 -88 -6 -9 -225 -226 -488
-482 -263 -255 -548 -532 -634 -616 -134 -131 -161 -153 -188 -153 -39 0 -69
40 -55 74 9 22 1352 1335 1367 1336 4 0 7 -32 7 -71z m-1835 -1799 c776 -746
1501 -1443 1612 -1550 123 -117 206 -205 213 -223 12 -37 13 -160 1 -155 -10
3 -2912 2790 -3176 3050 l-150 147 -4 88 -3 88 48 -45 c27 -24 684 -654 1459
-1400z m1835 1361 l0 -79 -497 -483 c-274 -265 -520 -503 -546 -528 l-48 -46
-34 40 c-19 22 -34 46 -32 53 2 14 1137 1121 1150 1122 4 0 7 -36 7 -79z m-4
-496 c-5 -19 -817 -818 -852 -838 -9 -5 -28 5 -55 31 l-42 39 169 165 c93 91
306 298 474 460 l305 296 3 -66 c2 -37 1 -76 -2 -87z m-2132 -1005 c633 -607
1313 -1259 1511 -1449 627 -600 613 -587 620 -623 3 -18 5 -59 3 -92 l-3 -58
-1185 1138 c-652 625 -1398 1342 -1658 1593 -261 250 -478 465 -483 479 -5 13
-9 55 -9 94 l0 71 27 -24 c15 -13 544 -521 1177 -1129z m2129 565 c-13 -23
-627 -615 -638 -615 -5 1 -28 16 -50 35 l-40 34 80 80 c44 44 208 204 365 355
l285 275 3 -74 c2 -42 -1 -82 -5 -90z m-1838 -1270 c802 -770 1540 -1478 1639
-1572 99 -95 186 -183 193 -195 15 -27 18 -171 3 -166 -5 2 -607 577 -1337
1279 -731 702 -1475 1416 -1654 1588 -180 171 -329 321 -333 334 -3 12 -6 53
-6 90 0 64 1 67 18 55 11 -7 675 -643 1477 -1413z m1834 840 c-18 -30 -392
-389 -410 -393 -8 -1 -31 15 -52 36 l-37 38 253 242 252 242 3 -72 c2 -44 -2
-81 -9 -93z m-2272 -846 c571 -548 1308 -1256 1638 -1572 330 -317 610 -591
623 -608 18 -26 22 -45 22 -106 0 -42 -4 -73 -9 -71 -6 2 -110 100 -233 218
-643 619 -1849 1778 -2418 2324 -355 340 -653 630 -662 645 -20 29 -26 176 -8
169 5 -1 477 -451 1047 -999z m2283 505 l0 -77 -97 -98 c-53 -55 -99 -99 -102
-99 -3 1 -25 18 -49 39 l-42 39 137 136 c76 74 141 136 146 136 4 0 7 -34 7
-76z m-2272 -941 c576 -554 1318 -1268 1649 -1586 331 -319 607 -591 613 -606
6 -15 10 -59 8 -98 l-3 -71 -1065 1024 c-586 564 -1329 1278 -1651 1587 -322
309 -593 574 -603 589 -18 30 -23 168 -6 168 6 0 482 -453 1058 -1007z m2260
515 l-3 -33 -24 33 -23 33 23 26 24 25 3 -26 c2 -14 2 -40 0 -58z m-2294 -911
c2322 -2233 2295 -2206 2301 -2240 4 -18 5 -58 3 -91 l-3 -58 -820 788 c-451
433 -1108 1065 -1460 1404 -352 338 -723 694 -824 790 -141 135 -189 187 -207
225 -32 68 -32 166 1 147 7 -4 461 -438 1009 -965z m-984 252 c0 -4 -11 -14
-25 -23 l-25 -16 0 47 0 46 25 -23 c14 -13 25 -27 25 -31z m220 -204 c0 -1
-61 -59 -135 -129 l-135 -128 0 84 0 83 92 88 92 87 43 -42 c24 -23 43 -43 43
-43z m173 -258 c-27 -27 -137 -134 -245 -239 l-198 -190 0 83 0 84 202 197
203 196 43 -41 42 -41 -47 -49z m44 -386 c-122 -118 -282 -274 -354 -345
l-133 -130 0 76 c0 42 3 83 6 92 3 8 143 148 311 311 l306 297 43 -43 43 -42
-222 -216z m392 58 c18 -21 34 -46 35 -55 0 -8 -204 -215 -454 -458 l-455
-444 -3 66 c-2 37 -1 76 2 87 3 12 178 189 388 394 211 205 397 390 413 411
17 22 32 39 35 39 3 -1 20 -18 39 -40z m228 -225 c24 -20 43 -39 41 -43 -2 -3
-199 -197 -438 -430 -239 -234 -497 -486 -574 -560 l-138 -136 4 76 c3 49 12
89 24 112 10 19 132 143 269 275 138 131 365 352 505 490 140 138 257 251 259
252 2 0 24 -16 48 -36z m228 -214 l39 -40 -39 -41 c-99 -101 -1316 -1284
-1325 -1287 -6 -2 -10 19 -10 50 0 102 19 125 345 443 164 160 443 431 619
603 176 171 322 312 326 312 3 0 24 -18 45 -40z"/>
<path d="M7988 9463 l-28 -36 0 -4348 0 -4349 29 -32 29 -32 63 61 64 62 3
4298 2 4297 -61 58 c-33 32 -63 58 -67 58 -4 -1 -19 -17 -34 -37z"/>
<path d="M7748 9241 c-37 -36 -75 -84 -84 -106 -16 -37 -17 -340 -15 -4075 l2
-4035 85 -85 84 -85 0 4228 c0 2325 -1 4226 -2 4226 -2 -1 -33 -32 -70 -68z"/>
<path d="M8280 5091 l0 -4173 83 77 c45 43 87 87 94 99 10 16 12 898 13 4002
0 3778 -1 3983 -17 4001 -10 11 -53 53 -95 93 l-78 73 0 -4172z"/>
<path d="M7408 8920 l-78 -89 0 -3748 0 -3748 83 -83 c45 -45 86 -82 90 -82
11 0 4 7833 -8 7836 -5 2 -45 -37 -87 -86z"/>
<path d="M8600 5090 l0 -3862 78 72 c42 40 83 83 89 95 10 18 13 816 13 3697
1 2020 -2 3681 -5 3689 -3 9 -44 50 -90 93 l-85 77 0 -3861z"/>
<path d="M7116 8630 c-38 -36 -75 -79 -82 -97 -12 -27 -14 -586 -14 -3467 l0
-3434 83 -78 82 -77 3 1807 c1 994 1 2618 0 3609 l-3 1802 -69 -65z"/>
<path d="M2155 9436 l-60 -54 -3 -4295 -2 -4295 64 -56 c35 -31 68 -56 74 -56
41 0 39 -174 46 4401 l6 4357 -21 26 c-11 14 -26 26 -32 26 -7 0 -39 -25 -72
-54z"/>
<path d="M2410 5091 c0 -3655 2 -4221 14 -4214 8 4 46 38 84 75 l70 66 3 3319
c2 1825 2 3657 -1 4072 l-5 753 -82 76 -83 75 0 -4222z"/>
<path d="M1872 9169 c-37 -34 -75 -70 -84 -81 -17 -19 -18 -224 -18 -4000 l0
-3981 87 -88 c48 -49 90 -89 95 -89 4 0 8 1868 8 4150 0 2828 -3 4150 -10
4150 -6 0 -41 -28 -78 -61z"/>
<path d="M2730 5084 l0 -3919 88 88 87 87 3 3747 2 3747 -42 44 c-24 24 -64
62 -90 84 l-48 40 0 -3918z"/>
<path d="M1543 8855 l-81 -80 -7 -175 c-3 -96 -5 -1756 -3 -3688 l3 -3513 85
-78 85 -79 3 1925 c1 1059 1 2789 0 3846 l-3 1922 -82 -80z"/>
<path d="M3050 5090 l0 -3601 74 66 c41 37 82 82 90 100 14 30 16 375 16 3445
0 2156 -4 3418 -10 3429 -5 10 -45 51 -90 91 l-80 72 0 -3602z"/>
</g>
</svg>
