<?xml version="1.0" encoding="UTF-8"?>
<svg id="aw" xmlns="http://www.w3.org/2000/svg" viewBox="0 0 614.98 512">
  <defs>
    <style>
      .cls-1 {
        fill: #231f20;
      }
    </style>
  </defs>
  <path class="cls-1" d="M571.34,114.56h0s0-.33,0-.33c0-.07-.01-.14-.02-.21-.17-15.34-7.83-29.58-20.56-38.17l-34.13-23.02c-15.86-10.7-36.35-10.7-52.21,0l-156.94,105.84L150.57,52.84c-15.86-10.7-36.35-10.7-52.21,0l-34.13,23.02c-12.89,8.69-20.58,23.16-20.58,38.71h.01v283.21c0,10.87,3.79,21.44,10.7,29.8,2.87,3.43,6.17,6.43,9.85,8.95l23.54,15.81,10.59,7.18c7.93,5.38,17.01,8.07,26.1,8.07s18.16-2.69,26.08-8.06l156.99-105.84,156.98,105.83c7.93,5.38,17.01,8.06,26.09,8.06s18.17-2.69,26.09-8.06l34.16-23.02c3.64-2.49,6.94-5.5,9.83-8.95,6.89-8.33,10.68-18.91,10.68-29.77V114.57h0ZM553.73,92.78c-6.21-1.43-12.8-.31-18.2,3.34l-160.39,108.2-24.58-16.58,173.78-117.22,20.64,13.92c3.42,2.3,6.35,5.14,8.75,8.34ZM470.21,61.41c12.34-8.33,28.3-8.32,40.64,0l4.24,2.86-173.78,117.22-24.57-16.57,153.48-103.5ZM144.78,61.41l334.78,225.8c1.75,1.18,3.76,1.77,5.78,1.77,1.66,0,3.33-.4,4.86-1.21,3.39-1.8,5.49-5.3,5.49-9.13v-44.96c0-3.83-2.1-7.33-5.49-9.13-3.39-1.8-7.46-1.59-10.64.55l-36.8,24.81-24.56-16.57,94.06-63.45c2.18-1.47,4.88-1.61,7.2-.38,2.33,1.24,3.71,3.55,3.71,6.18v160.93c0,2.63-1.39,4.94-3.71,6.18-2.33,1.23-5.02,1.1-7.2-.38L99.89,64.28l4.25-2.87c12.34-8.32,28.3-8.32,40.64,0ZM452.01,256.16l33.33-22.47v44.96s-33.33-22.48-33.33-22.48ZM66.33,425.06l173.5-117.03,24.56,16.57-173.79,117.23-20.6-13.88c-1.27-.87-2.5-1.85-3.68-2.89ZM144.71,450.95c-12.32,8.36-28.25,8.36-40.57,0l-4.27-2.88,173.78-117.23,24.6,16.59-153.54,103.51ZM470.28,450.94l-159.88-107.78h0s-174.98-118.04-174.98-118.04c-3.18-2.15-7.26-2.36-10.64-.56-3.39,1.8-5.49,5.3-5.49,9.14v44.96c0,3.84,2.1,7.34,5.49,9.14,3.38,1.8,7.46,1.59,10.64-.56l36.79-24.82,24.56,16.57-94.05,63.44c-2.18,1.47-4.87,1.61-7.2.38-2.33-1.24-3.71-3.55-3.71-6.18v-160.9c0-2.63,1.39-4.94,3.71-6.18,2.32-1.23,5.02-1.1,7.2.38l412.39,278.15-4.25,2.88c-12.32,8.36-28.25,8.36-40.58,0ZM162.95,256.17l-33.33,22.48v-44.96s33.33,22.48,33.33,22.48ZM524.35,441.82L108.5,161.33c-6.57-4.44-15.43-3.95-21.58,1.72-3.64,3.35-5.47,8.24-5.47,13.19v159.88c0,4.94,1.84,9.83,5.48,13.17,6.15,5.65,15,6.13,21.57,1.7l97.51-65.77,24.57,16.58-166.12,112.05c-2.79,1.88-6.55.65-7.81-2.47-1.73-4.29-2.65-8.91-2.65-13.6V114.57h-.01c0-.09,0-.17,0-.26h0c.03-4.4,2.36-8.15,6.39-10.27,4.26-2.25,9.35-2,13.29.65l474.95,320.4c-1.16,1.03-2.37,1.99-3.6,2.84l-20.68,13.89ZM558.32,411.42c-1.26,3.12-5.02,4.34-7.81,2.46L79.47,96.11c-5.4-3.65-12-4.77-18.21-3.33,2.4-3.21,5.34-6.04,8.76-8.35l20.63-13.91,415.84,280.49c2.93,1.97,6.31,2.97,9.7,2.97,4.18,0,8.38-1.52,11.77-4.59,3.7-3.35,5.58-8.29,5.58-13.28v-159.92c0-4.94-1.84-9.82-5.48-13.16-6.15-5.64-15-6.13-21.57-1.7l-97.53,65.79-24.55-16.56,156.92-105.86c3.93-2.65,9.02-2.9,13.28-.65,3.98,2.1,6.3,5.78,6.38,10.14,0,.12.01.24.01.35v283.24c0,4.72-.93,9.35-2.67,13.65Z"/>
</svg>