<?xml version="1.0" encoding="UTF-8"?>
<svg id="aw" xmlns="http://www.w3.org/2000/svg" viewBox="0 0 2643.88 512">
  <defs>
    <style>
      .cls-1 {
        fill: #fff;
      }
    </style>
  </defs>
  <g>
    <path class="cls-1" d="M1053.34,173.37c-4.7-7.95-11.05-14.38-19-19.22-8.02-4.84-16.98-7.3-26.95-7.3h-211.53c-9.97,0-18.93,2.46-26.95,7.3-7.95,4.84-14.3,11.27-19.07,19.22-4.7,8.02-7.08,16.76-7.08,26.22v164.07h53.46v-161.47c0-.5.14-1.01.58-1.52.22-.29.36-.43.58-.58.29-.07.51-.14.72-.14h74.7c.51,0,1.01.22,1.52.72.51.51.72,1.01.72,1.52v161.47h53.46v-161.47c0-.5.29-1.01.79-1.52.51-.5.94-.72,1.44-.72h74.41c.22,0,.51.07.72.14.22.14.51.29.79.58.51.51.72,1.01.72,1.52v161.47h53.1v-164.07c0-9.46-2.38-18.21-7.15-26.22Z"/>
    <path class="cls-1" d="M1156.16,356.38c-7.98-4.86-14.39-11.27-19.25-19.25-4.86-7.97-7.29-16.69-7.29-26.16v-111.39c0-9.47,2.43-18.19,7.29-26.17,4.86-7.97,11.27-14.39,19.25-19.25,7.97-4.86,16.69-7.29,26.17-7.29h114.38c9.72,0,18.56,2.43,26.54,7.29,7.97,4.85,14.32,11.27,19.06,19.25,4.73,7.98,7.1,16.7,7.1,26.17v111.39c0,9.47-2.37,18.19-7.1,26.16-4.74,7.98-11.09,14.39-19.06,19.25-7.98,4.86-16.82,7.29-26.54,7.29h-114.38c-9.48,0-18.2-2.43-26.17-7.29ZM1184.94,310.59h109.15c.49,0,.99-.25,1.5-.75.49-.5.75-.99.75-1.5v-106.16c0-.5-.25-.99-.75-1.5-.5-.49-1-.75-1.5-.75h-109.15c-.5,0-.99.25-1.5.75-.5.5-.74.99-.74,1.5v106.16c0,.5.24.99.74,1.5.5.5.99.75,1.5.75Z"/>
    <path class="cls-1" d="M1567.3,75.85v232.48c0,.51-.22,1.01-.72,1.52-.5.51-1.01.72-1.52.72h-109.09c-.51,0-1.01-.22-1.52-.72-.5-.51-.72-1.01-.72-1.52v-106.13c0-.51.22-1.01.72-1.52.51-.51,1.01-.72,1.52-.72h89.32v-53.1h-91.99c-9.97,0-18.93,2.46-26.87,7.3-8.02,4.84-14.3,11.27-19.07,19.22-4.77,8.02-7.08,16.69-7.08,26.22v111.33c0,9.46,2.31,18.21,7.08,26.22,4.77,7.95,11.05,14.38,19.07,19.22,7.95,4.84,16.91,7.3,26.87,7.3h167.1V75.85h-53.1Z"/>
    <path class="cls-1" d="M1700.03,356.38c-7.98-4.86-14.34-11.27-19.06-19.25-4.74-7.97-7.1-16.69-7.1-26.16v-164.1h53.08v161.48c0,.5.25.99.75,1.5s.99.75,1.5.75h109.15c.49,0,.99-.25,1.5-.75.49-.5.75-.99.75-1.5v-161.48h53.08v164.1c0,9.47-2.37,18.19-7.1,26.16-4.74,7.98-11.09,14.39-19.06,19.25-7.98,4.86-16.83,7.29-26.54,7.29h-114.38c-9.71,0-18.56-2.43-26.53-7.29Z"/>
    <path class="cls-1" d="M1982.25,356.38c-7.98-4.86-14.39-11.27-19.25-19.25-4.86-7.97-7.29-16.69-7.29-26.16V75.47h53.45v232.88c0,.5.25.99.75,1.5s.99.75,1.5.75h42.61v53.08h-45.6c-9.48,0-18.2-2.43-26.17-7.29Z"/>
    <path class="cls-1" d="M2132.14,356.38c-7.98-4.86-14.34-11.27-19.06-19.25-4.74-7.97-7.1-16.69-7.1-26.16v-164.1h53.08v161.48c0,.5.25.99.75,1.5.5.5.99.75,1.5.75h109.15c.49,0,.99-.25,1.5-.75.49-.5.75-.99.75-1.5v-161.48h53.08v164.1c0,9.47-2.37,18.19-7.1,26.16-4.74,7.98-11.09,14.39-19.06,19.25-7.98,4.86-16.83,7.29-26.54,7.29h-114.38c-9.71,0-18.56-2.43-26.53-7.29Z"/>
    <path class="cls-1" d="M2404.64,356.38c-7.98-4.86-14.39-11.27-19.25-19.25-4.85-7.97-7.29-16.69-7.29-26.16v-9.72h53.08v7.1c0,.5.24.99.75,1.5.49.5.99.75,1.49.75h109.15c.5,0,.99-.25,1.5-.75.49-.5.75-.99.75-1.5v-24.3c0-.5-.25-.94-.75-1.31-.5-.37-.99-.56-1.5-.56h-111.76c-9.48,0-18.2-2.43-26.17-7.29-7.98-4.86-14.39-11.27-19.25-19.25-4.85-7.97-7.29-16.82-7.29-26.53v-29.53c0-9.47,2.43-18.19,7.29-26.17,4.86-7.97,11.27-14.39,19.25-19.25,7.97-4.86,16.69-7.29,26.17-7.29h114.38c9.72,0,18.56,2.43,26.54,7.29,7.97,4.85,14.39,11.27,19.25,19.25,4.86,7.98,7.29,16.7,7.29,26.17v9.71h-53.45v-7.1c0-.5-.25-.99-.75-1.5-.5-.49-.99-.75-1.5-.75h-109.15c-.5,0-.99.25-1.49.75-.51.5-.75.99-.75,1.5v24.3c0,.5.24.93.75,1.31.49.37.99.56,1.49.56h111.77c9.72,0,18.56,2.43,26.54,7.29,7.97,4.85,14.39,11.27,19.25,19.25,4.86,7.98,7.29,16.82,7.29,26.54v29.53c0,9.47-2.43,18.19-7.29,26.16-4.85,7.98-11.27,14.39-19.25,19.25-7.98,4.86-16.82,7.29-26.54,7.29h-114.38c-9.48,0-18.2-2.43-26.17-7.29Z"/>
  </g>
  <path class="cls-1" d="M124.87,465.79c-9.13,0-18-2.74-25.65-7.93l-10.54-7.15-23.42-15.73c-3.59-2.46-6.85-5.42-9.68-8.8-6.78-8.2-10.51-18.6-10.51-29.28V114.46c.18-15.06,7.71-29.03,20.21-37.46l33.97-22.91c7.65-5.16,16.52-7.88,25.66-7.88s18.01,2.73,25.65,7.88l156.49,105.55,156.52-105.55c7.65-5.16,16.52-7.88,25.66-7.88s18.01,2.73,25.66,7.88l33.96,22.91c12.48,8.42,20.03,22.44,20.21,37.51l.02.52v281.86c0,10.68-3.73,21.07-10.5,29.26-2.84,3.39-6.09,6.35-9.66,8.79l-34,22.91c-7.64,5.18-16.51,7.92-25.64,7.92s-18-2.74-25.64-7.92l-156.56-105.55-156.57,105.55c-7.64,5.18-16.5,7.92-25.63,7.92ZM99.38,446.96l4.97,3.34c6.11,4.15,13.21,6.35,20.51,6.35s14.4-2.2,20.51-6.35l153.52-103.5-25.52-17.22-173.99,117.37ZM130.04,223.89c1.94,0,3.82.58,5.43,1.67l174.14,117.47,159.12,107.27c6.12,4.15,13.22,6.35,20.53,6.35s14.4-2.2,20.51-6.34l4.94-3.35L103.59,169.64c-1.27-.85-2.72-1.31-4.21-1.31-1.22,0-2.45.31-3.56.9-2.51,1.33-4.01,3.82-4.01,6.66v160.13c0,2.84,1.5,5.33,4.01,6.67,1.11.59,2.34.9,3.56.9,1.49,0,2.94-.45,4.21-1.31l94.31-63.62-25.48-17.19-36.94,24.92c-1.61,1.09-3.49,1.66-5.42,1.66-1.58,0-3.16-.39-4.57-1.14-3.18-1.69-5.16-4.98-5.15-8.58v-44.75c0-3.6,1.98-6.89,5.16-8.58,1.4-.75,2.98-1.14,4.56-1.14ZM66.1,423.99l.56.5c1.24,1.1,2.49,2.08,3.71,2.93l20.83,14.03,174-117.37-25.49-17.19-173.62,117.1ZM99.37,159.22c3.33,0,6.55.99,9.32,2.86l414.18,279.36,20.9-14.04c1.18-.81,2.4-1.77,3.64-2.87l.57-.5L74.69,104.74c-2.2-1.49-4.77-2.27-7.45-2.27-2.2,0-4.41.55-6.37,1.59-4.1,2.16-6.51,5.92-6.66,10.37v282.48c0,4.72.9,9.34,2.68,13.76.91,2.25,3.05,3.71,5.44,3.71,1.14,0,2.24-.34,3.2-.99l166.04-112-25.5-17.2-97.37,65.68c-2.77,1.87-6,2.86-9.33,2.86-4.2,0-8.26-1.6-11.42-4.5-3.35-3.07-5.26-7.69-5.26-12.68v-159.11c0-4.99,1.92-9.63,5.26-12.7,3.16-2.91,7.22-4.51,11.43-4.51ZM67.27,93.35c4.49,0,8.82,1.32,12.52,3.82l468.8,316.25c.96.65,2.06.99,3.2.99,2.39,0,4.53-1.45,5.44-3.7,1.79-4.43,2.7-9.07,2.7-13.8V115.01c-.1-4.91-2.53-8.77-6.67-10.96-1.97-1.04-4.17-1.59-6.37-1.59-2.67,0-5.25.79-7.45,2.27l-156.89,105.84,25.48,17.19,97.39-65.7c2.77-1.87,6-2.86,9.33-2.86,4.2,0,8.26,1.6,11.42,4.5,3.35,3.07,5.26,7.69,5.26,12.68v159.16c0,5.05-1.95,9.71-5.36,12.79-3.15,2.85-7.17,4.42-11.32,4.42-3.33,0-6.56-.99-9.33-2.86L91.24,70.51l-20.86,14.06c-3.39,2.29-6.37,5.13-8.85,8.44l-.96,1.28,1.56-.36c1.69-.39,3.42-.59,5.15-.59ZM124.9,55.36c-7.32,0-14.42,2.18-20.55,6.31l-4.95,3.34,411.12,277.3c1.27.86,2.72,1.31,4.21,1.31,1.22,0,2.45-.31,3.56-.9,2.51-1.33,4-3.83,4-6.66v-160.16c0-2.84-1.5-5.33-4-6.66-1.11-.59-2.34-.9-3.56-.9-1.49,0-2.94.45-4.21,1.3l-94.33,63.63,25.49,17.19,36.95-24.92c1.62-1.08,3.5-1.66,5.43-1.66,1.58,0,3.16.4,4.56,1.14,3.18,1.69,5.16,4.98,5.16,8.58v44.74c0,3.6-1.97,6.89-5.15,8.57-1.4.75-2.98,1.14-4.57,1.14-1.94,0-3.82-.58-5.43-1.67L145.45,61.67c-6.12-4.13-13.23-6.31-20.55-6.31ZM129.46,279.45l34.79-23.47-34.79-23.47v46.94ZM449.85,255.97l34.79,23.47v-46.93l-34.79,23.46ZM348.88,187.86l25.51,17.2,159.95-107.9c3.71-2.5,8.04-3.82,12.53-3.82,1.72,0,3.45.2,5.13.59l1.55.36-.96-1.28c-2.48-3.31-5.46-6.15-8.85-8.44l-20.87-14.07-173.99,117.36ZM489.22,55.35c-7.32,0-14.42,2.18-20.54,6.31l-153.46,103.49,25.5,17.2,173.99-117.36-4.93-3.32c-6.13-4.13-13.23-6.32-20.55-6.32Z"/>
</svg>