<?xml version="1.0" encoding="UTF-8"?>
<svg id="aw" xmlns="http://www.w3.org/2000/svg" viewBox="0 0 614.98 512">
  <defs>
    <style>
      .cls-1 {
        fill: #fff;
      }
    </style>
  </defs>
  <path class="cls-1" d="M490.57,466.51c-9.08,0-17.89-2.73-25.5-7.88l-157.58-106.23-157.59,106.24c-7.6,5.15-16.41,7.88-25.48,7.88s-17.9-2.73-25.5-7.88l-10.59-7.18-23.54-15.81c-3.58-2.45-6.82-5.4-9.63-8.75-6.74-8.15-10.45-18.5-10.45-29.12V113.5c.34-14.79,7.8-28.47,20.1-36.77l34.13-23.02c7.61-5.13,16.43-7.84,25.51-7.84s17.91,2.71,25.51,7.84l157.51,106.24,157.53-106.24c7.6-5.13,16.43-7.84,25.51-7.84s17.91,2.71,25.51,7.84l34.13,23.02c12.41,8.37,19.92,22.31,20.09,37.3l.02.52v283.21c0,10.62-3.71,20.95-10.44,29.1-2.81,3.36-6.05,6.31-9.61,8.75l-34.16,23.02c-7.6,5.16-16.42,7.88-25.5,7.88ZM97.97,448.07l5.58,3.76c6.22,4.22,13.44,6.45,20.88,6.45s14.66-2.23,20.88-6.45l154.84-104.39-26.5-17.87-175.68,118.51ZM129.63,224.41c1.85,0,3.65.55,5.19,1.59l174.98,118.03,159.88,107.79c6.23,4.23,13.45,6.46,20.89,6.46s14.66-2.23,20.88-6.45l5.55-3.76L103.31,169.03c-1.35-.91-2.91-1.39-4.5-1.39-1.3,0-2.61.33-3.8.96-2.68,1.42-4.28,4.08-4.28,7.12v160.9c0,3.03,1.6,5.69,4.28,7.12,1.18.63,2.5.96,3.8.96,1.59,0,3.14-.48,4.49-1.39l95.35-64.32-26.46-17.85-37.39,25.22c-1.54,1.04-3.33,1.59-5.19,1.59-1.51,0-3.02-.38-4.37-1.09-3.04-1.62-4.93-4.76-4.93-8.2v-44.96c0-3.44,1.89-6.58,4.93-8.2,1.34-.71,2.85-1.09,4.36-1.09ZM64.6,424.95l1.03.91c1.27,1.13,2.54,2.13,3.78,2.97l21.2,14.29,175.69-118.51-26.46-17.85-175.23,118.19ZM98.81,159.42c3.25,0,6.4.97,9.1,2.79l416.43,280.88,21.27-14.29c1.2-.82,2.45-1.81,3.71-2.92l1.03-.91L74.27,103.81c-2.29-1.54-4.97-2.36-7.75-2.36-2.29,0-4.58.57-6.63,1.65-4.06,2.14-6.54,5.8-6.91,10.15h-.03l-.03,1.95h.02v282.58c0,4.8.92,9.52,2.73,14,.99,2.44,3.31,4.02,5.91,4.02,1.24,0,2.44-.37,3.48-1.07l167.43-112.93-26.47-17.86-98.1,66.18c-2.7,1.82-5.85,2.79-9.1,2.79-4.11,0-8.07-1.56-11.15-4.4-3.26-3-5.13-7.51-5.13-12.39v-159.88c0-4.88,1.87-9.41,5.13-12.41,3.09-2.84,7.05-4.41,11.16-4.41ZM66.55,93.24c4.42,0,8.68,1.3,12.32,3.76l471.05,317.77c1.04.7,2.24,1.07,3.48,1.07,2.6,0,4.92-1.58,5.91-4.02,1.82-4.5,2.75-9.23,2.75-14.05V114.52s-.01-.36-.01-.36c-.09-4.75-2.62-8.78-6.95-11.06-2.04-1.08-4.33-1.65-6.62-1.65-2.78,0-5.46.82-7.75,2.36l-158.23,106.74,26.45,17.84,98.12-66.19c2.71-1.83,5.86-2.79,9.11-2.79,4.1,0,8.06,1.56,11.15,4.39,3.26,2.99,5.14,7.51,5.14,12.38v159.92c0,4.94-1.91,9.49-5.23,12.5-3.07,2.78-7,4.31-11.06,4.31-3.25,0-6.4-.97-9.11-2.79L90.64,69.24l-21.22,14.31c-3.45,2.32-6.48,5.21-9.01,8.59l-1.74,2.33,2.83-.66c1.66-.38,3.36-.58,5.06-.58ZM124.46,54.11c-7.45,0-14.68,2.22-20.91,6.43l-5.56,3.75,413.68,279.03c1.35.91,2.91,1.39,4.49,1.39,1.3,0,2.61-.33,3.8-.96,2.68-1.43,4.28-4.09,4.28-7.12v-160.93c0-3.03-1.6-5.69-4.28-7.12-1.18-.63-2.5-.96-3.8-.96-1.59,0-3.14.48-4.5,1.39l-95.37,64.33,26.46,17.85,37.39-25.21c1.54-1.04,3.34-1.59,5.19-1.59,1.51,0,3.02.38,4.36,1.09,3.04,1.62,4.92,4.76,4.92,8.2v44.96c0,3.44-1.89,6.58-4.92,8.19-1.34.72-2.85,1.09-4.36,1.09-1.85,0-3.65-.55-5.19-1.59L145.37,60.53c-6.23-4.2-13.46-6.43-20.91-6.43ZM128.56,280.65l36.29-24.48-36.28-24.48v48.95ZM450.12,256.16l36.29,24.48v-48.95s-36.29,24.47-36.29,24.47ZM348.66,187.73l26.48,17.86,160.98-108.6c3.64-2.46,7.9-3.76,12.32-3.76,1.69,0,3.39.2,5.04.58l2.83.66-1.74-2.33c-2.53-3.37-5.56-6.26-9.01-8.59l-21.23-14.32-175.68,118.5ZM490.53,54.11c-7.45,0-14.68,2.22-20.91,6.43l-154.78,104.38,26.47,17.86,175.68-118.5-5.54-3.74c-6.23-4.2-13.47-6.43-20.92-6.43Z"/>
</svg>