<?xml version="1.0" encoding="UTF-8"?>
<svg id="aw" xmlns="http://www.w3.org/2000/svg" viewBox="0 0 2643.88 512">
  <defs>
    <style>
      .cls-1 {
        fill: #231f20;
      }
    </style>
  </defs>
  <g>
    <path class="cls-1" d="M1053.34,173.37c-4.7-7.95-11.05-14.38-19-19.22-8.02-4.84-16.98-7.3-26.95-7.3h-211.53c-9.97,0-18.93,2.46-26.95,7.3-7.95,4.84-14.3,11.27-19.07,19.22-4.7,8.02-7.08,16.76-7.08,26.22v164.07h53.46v-161.47c0-.5.14-1.01.58-1.52.22-.29.36-.43.58-.58.29-.07.51-.14.72-.14h74.7c.51,0,1.01.22,1.52.72.51.51.72,1.01.72,1.52v161.47h53.46v-161.47c0-.5.29-1.01.79-1.52.51-.5.94-.72,1.44-.72h74.41c.22,0,.51.07.72.14.22.14.51.29.79.58.51.51.72,1.01.72,1.52v161.47h53.1v-164.07c0-9.46-2.38-18.21-7.15-26.22Z"/>
    <path class="cls-1" d="M1156.17,356.38c-7.98-4.86-14.39-11.27-19.25-19.25-4.86-7.97-7.29-16.69-7.29-26.16v-111.39c0-9.47,2.43-18.19,7.29-26.17,4.86-7.97,11.27-14.39,19.25-19.25,7.97-4.86,16.69-7.29,26.17-7.29h114.38c9.72,0,18.56,2.43,26.54,7.29,7.97,4.85,14.32,11.27,19.06,19.25,4.73,7.98,7.1,16.7,7.1,26.17v111.39c0,9.47-2.37,18.19-7.1,26.16-4.74,7.98-11.09,14.39-19.06,19.25-7.98,4.86-16.82,7.29-26.54,7.29h-114.38c-9.47,0-18.2-2.43-26.17-7.29ZM1184.94,310.59h109.15c.49,0,.99-.25,1.5-.75.49-.5.75-.99.75-1.5v-106.16c0-.5-.25-.99-.75-1.5-.5-.49-1-.75-1.5-.75h-109.15c-.5,0-.99.25-1.5.75-.5.5-.74.99-.74,1.5v106.16c0,.5.24.99.74,1.5.5.5.99.75,1.5.75Z"/>
    <path class="cls-1" d="M1567.31,75.85v232.48c0,.51-.22,1.01-.72,1.52-.5.51-1.01.72-1.52.72h-109.09c-.51,0-1.01-.22-1.52-.72-.5-.51-.72-1.01-.72-1.52v-106.13c0-.51.22-1.01.72-1.52.51-.51,1.01-.72,1.52-.72h89.32v-53.1h-91.99c-9.97,0-18.93,2.46-26.87,7.3-8.02,4.84-14.3,11.27-19.07,19.22-4.77,8.02-7.08,16.69-7.08,26.22v111.33c0,9.46,2.31,18.21,7.08,26.22,4.77,7.95,11.05,14.38,19.07,19.22,7.95,4.84,16.91,7.3,26.87,7.3h167.1V75.85h-53.1Z"/>
    <path class="cls-1" d="M1700.04,356.38c-7.98-4.86-14.34-11.27-19.06-19.25-4.74-7.97-7.1-16.69-7.1-26.16v-164.1h53.08v161.48c0,.5.25.99.75,1.5s.99.75,1.5.75h109.15c.49,0,.99-.25,1.5-.75.49-.5.75-.99.75-1.5v-161.48h53.08v164.1c0,9.47-2.37,18.19-7.1,26.16-4.74,7.98-11.09,14.39-19.06,19.25-7.98,4.86-16.83,7.29-26.54,7.29h-114.38c-9.71,0-18.56-2.43-26.53-7.29Z"/>
    <path class="cls-1" d="M1982.25,356.38c-7.98-4.86-14.39-11.27-19.25-19.25-4.86-7.97-7.29-16.69-7.29-26.16V75.47h53.45v232.87c0,.5.25.99.75,1.5.5.5.99.75,1.5.75h42.61v53.08h-45.6c-9.47,0-18.2-2.43-26.17-7.29Z"/>
    <path class="cls-1" d="M2132.14,356.38c-7.98-4.86-14.34-11.27-19.06-19.25-4.74-7.97-7.1-16.69-7.1-26.16v-164.1h53.08v161.48c0,.5.25.99.75,1.5.5.5.99.75,1.5.75h109.15c.49,0,.99-.25,1.5-.75.49-.5.75-.99.75-1.5v-161.48h53.08v164.1c0,9.47-2.37,18.19-7.1,26.16-4.74,7.98-11.09,14.39-19.06,19.25-7.98,4.86-16.83,7.29-26.54,7.29h-114.38c-9.71,0-18.56-2.43-26.53-7.29Z"/>
    <path class="cls-1" d="M2404.64,356.38c-7.98-4.86-14.39-11.27-19.25-19.25-4.85-7.97-7.29-16.69-7.29-26.16v-9.72h53.08v7.1c0,.5.24.99.75,1.5.49.5.99.75,1.49.75h109.15c.5,0,.99-.25,1.5-.75.49-.5.75-.99.75-1.5v-24.3c0-.5-.25-.94-.75-1.31-.5-.37-.99-.56-1.5-.56h-111.76c-9.47,0-18.2-2.43-26.17-7.29-7.98-4.86-14.39-11.27-19.25-19.25-4.85-7.97-7.29-16.82-7.29-26.53v-29.53c0-9.47,2.43-18.19,7.29-26.17,4.86-7.97,11.27-14.39,19.25-19.25,7.97-4.86,16.69-7.29,26.17-7.29h114.38c9.72,0,18.56,2.43,26.54,7.29,7.97,4.85,14.39,11.27,19.25,19.25,4.86,7.98,7.29,16.7,7.29,26.17v9.71h-53.45v-7.1c0-.5-.25-.99-.75-1.5-.5-.49-.99-.75-1.5-.75h-109.15c-.5,0-.99.25-1.49.75-.51.5-.75.99-.75,1.5v24.3c0,.5.24.93.75,1.31.49.37.99.56,1.49.56h111.77c9.72,0,18.56,2.43,26.54,7.29,7.97,4.85,14.39,11.27,19.25,19.25,4.86,7.98,7.29,16.82,7.29,26.54v29.53c0,9.47-2.43,18.19-7.29,26.16-4.85,7.98-11.27,14.39-19.25,19.25-7.98,4.86-16.82,7.29-26.54,7.29h-114.38c-9.47,0-18.2-2.43-26.17-7.29Z"/>
  </g>
  <path class="cls-1" d="M569.65,115.04h0s0-.32,0-.32c0-.07-.01-.14-.02-.21-.17-15.27-7.79-29.44-20.46-37.99l-33.96-22.91c-15.78-10.65-36.18-10.65-51.96,0l-156.19,105.33L150.88,53.61c-15.78-10.65-36.18-10.65-51.96,0l-33.97,22.91c-12.83,8.65-20.48,23.05-20.48,38.52h.01v281.86c0,10.81,3.77,21.34,10.65,29.65,2.85,3.41,6.14,6.4,9.8,8.91l23.42,15.74,10.54,7.15c7.89,5.35,16.93,8.03,25.97,8.03s18.07-2.67,25.95-8.02l156.24-105.33,156.23,105.32c7.89,5.35,16.93,8.02,25.97,8.02s18.08-2.67,25.97-8.02l34-22.91c3.62-2.48,6.91-5.47,9.78-8.9,6.86-8.29,10.63-18.82,10.63-29.63V115.05h0ZM552.12,93.36c-6.18-1.43-12.74-.31-18.11,3.32l-159.62,107.68-24.46-16.5,172.95-116.66,20.54,13.85c3.4,2.29,6.32,5.12,8.71,8.3ZM469,62.15c12.29-8.29,28.16-8.28,40.45,0l4.22,2.84-172.95,116.66-24.46-16.5,152.74-103.01ZM145.12,62.15l333.18,224.73c1.74,1.17,3.74,1.77,5.76,1.76,1.66,0,3.32-.4,4.84-1.21,3.37-1.79,5.46-5.28,5.46-9.09v-44.74c0-3.82-2.09-7.3-5.46-9.09-3.37-1.8-7.43-1.58-10.59.55l-36.62,24.7-24.45-16.49,93.61-63.15c2.17-1.46,4.86-1.6,7.17-.38,2.31,1.23,3.7,3.53,3.7,6.15v160.16c0,2.62-1.38,4.92-3.7,6.15-2.31,1.23-4.99,1.09-7.17-.38L100.45,65.01l4.23-2.86c12.29-8.28,28.16-8.28,40.44,0ZM450.89,255.97l33.17-22.37v44.74s-33.17-22.37-33.17-22.37ZM67.05,424.06l172.67-116.47,24.44,16.49-172.96,116.67-20.5-13.81c-1.26-.86-2.48-1.84-3.66-2.88ZM145.05,449.82c-12.26,8.32-28.11,8.32-40.38,0l-4.25-2.86,172.95-116.67,24.48,16.51-152.81,103.01ZM469.06,449.81l-159.12-107.27h0s-174.14-117.47-174.14-117.47c-3.16-2.14-7.22-2.35-10.59-.56-3.37,1.79-5.46,5.28-5.46,9.09v44.74c0,3.82,2.09,7.3,5.46,9.09,3.37,1.79,7.43,1.58,10.59-.56l36.62-24.7,24.44,16.49-93.6,63.14c-2.17,1.46-4.85,1.6-7.16.38-2.31-1.23-3.7-3.53-3.7-6.15v-160.13c0-2.62,1.38-4.92,3.7-6.15,2.31-1.23,4.99-1.09,7.17.38l410.42,276.82-4.23,2.87c-12.26,8.32-28.11,8.32-40.39,0ZM163.21,255.98l-33.17,22.37v-44.74s33.17,22.37,33.17,22.37ZM522.88,440.74L109.02,161.59c-6.54-4.41-15.35-3.93-21.47,1.71-3.62,3.34-5.45,8.2-5.45,13.13v159.11c0,4.92,1.83,9.78,5.45,13.11,6.12,5.62,14.93,6.1,21.47,1.7l97.04-65.46,24.45,16.5-165.33,111.51c-2.77,1.87-6.52.65-7.77-2.46-1.72-4.27-2.64-8.86-2.64-13.54V115.05h-.01c0-.09,0-.17,0-.26h0c.03-4.38,2.35-8.11,6.36-10.22,4.24-2.24,9.31-1.99,13.22.65l472.68,318.87c-1.16,1.02-2.36,1.98-3.59,2.82l-20.58,13.82ZM556.69,410.48c-1.26,3.1-5,4.32-7.77,2.45L80.12,96.68c-5.38-3.63-11.94-4.75-18.13-3.32,2.39-3.19,5.31-6.01,8.71-8.31l20.53-13.85,413.85,279.15c2.91,1.97,6.28,2.96,9.65,2.96,4.16,0,8.34-1.51,11.71-4.57,3.69-3.34,5.55-8.25,5.55-13.22v-159.16c0-4.92-1.83-9.78-5.45-13.1-6.12-5.62-14.93-6.1-21.47-1.69l-97.06,65.48-24.44-16.48,156.17-105.36c3.91-2.64,8.98-2.89,13.22-.65,3.97,2.09,6.27,5.76,6.35,10.09,0,.12.01.23.01.35v281.89c0,4.69-.92,9.31-2.66,13.58Z"/>
</svg>