<?xml version="1.0" encoding="UTF-8"?><svg id="uuid-0ef93940-411b-475f-be69-83a2b90aba8f" xmlns="http://www.w3.org/2000/svg" viewBox="0 0 3600 1024"><text transform="translate(1079.42 689.53)" fill="#000" font-family="ArialMT, Arial" font-size="596.16"><tspan x="0" y="0">modulus</tspan></text><path d="M674.82,201.16c-51.71,50.16-102.51,99.43-153.64,149.02-2.69-2.5-5.07-4.72-8.03-7.48,89.94-87.54,179.65-174.87,269.69-262.51,4.87,4.59,9.14,8.58,13.36,12.62,22.63,21.65,45.22,43.34,67.91,64.93,2.49,2.37,3.49,4.82,3.49,8.3-.1,217.64-.11,435.28-.14,652.92,0,14.44-.15,28.89.03,43.32.05,4.34-1.16,7.53-4.37,10.61-26.14,25.07-52.12,50.31-78.16,75.48-.61.59-1.31,1.07-2.25,1.82-5.94-5.61-11.85-11.06-17.62-16.66-51.23-49.58-102.36-99.25-153.66-148.76-54-52.11-108.18-104.03-162.2-156.12-31.27-30.15-62.15-60.71-93.75-90.5-6.36-5.99-3.42-12.3-4.77-18.46.37-.29.73-.57,1.1-.86,107.39,103.39,214.79,206.78,323,310.96V201.16ZM782.56,933.36c2.68-2.45,5.28-5.19,8.25-7.43,3.19-2.42,4.17-5.27,4.17-9.24-.09-110.49-.04-220.98-.04-331.48,0-157.72-.03-315.44-.09-473.17,0-1.37,0-3.21-.8-4.04-3.46-3.59-7.23-6.88-11.36-10.71-2.1,3.89-6.05,5.06-6.04,10.07.14,271.54.14,543.07,0,814.61,0,5.24,1.37,8.81,5.92,11.4ZM807.09,120.38v789.65c4.97-4.65,9.01-8.92,13.57-12.55,3.89-3.09,4.98-6.65,4.97-11.48-.1-99.35-.04-198.7-.04-298.05,0-148.59-.02-297.19.04-445.78,0-3.13-.71-5.42-3.13-7.53-5.11-4.45-9.97-9.19-15.41-14.25ZM764.39,916.11V114.9c-2.62,2.82-4.16,5.35-6.41,6.74-9.78,6.06-11.14,14.79-11.12,25.68.31,205.38.2,410.77.2,616.15,0,44.2.04,88.39.16,132.59,0,1.81.53,4.13,1.71,5.34,4.83,4.96,10,9.58,15.46,14.71ZM734.33,886.97V144.94c-.53-.42-1.07-.83-1.6-1.25-4.19,4.73-8.14,9.7-12.66,14.08-2.3,2.22-3.28,4.25-3.28,7.41.08,180.38.08,360.76.1,541.14,0,53.43.03,106.87.11,160.3,0,1.74.21,4.04,1.29,5.13,5.01,5.12,10.36,9.9,16.04,15.23ZM837.51,880.73c4.18-4,7.32-7.69,11.11-10.46,5.51-4.04,6.57-9.14,6.57-15.63-.12-227.57-.1-455.14.04-682.71,0-4.31-1.18-7.25-4.42-9.98-4.43-3.72-8.47-7.91-13.3-12.5v731.29ZM704.36,857.63V174.03c-1.4.94-2.6,1.55-3.56,2.43-1.91,1.75-3.48,3.95-5.57,5.44-6.64,4.75-7.86,11.05-7.85,18.98.24,165.04.17,330.08.17,495.12,0,47.36,0,94.72.05,142.08,0,1.62.05,3.8,1.03,4.78,4.84,4.88,10,9.45,15.73,14.76Z" fill="#000" stroke-width="0"/><path d="M342.73,826.55c50.24-48.87,100.49-97.75,150.46-146.36,3.06,2.71,5.64,4.99,8.4,7.43-89.16,87.61-177.95,174.86-267.08,262.45-7.39-6.94-14.63-13.66-21.78-20.48-19.85-18.92-39.6-37.93-59.54-56.74-2.9-2.74-3.96-5.5-3.96-9.41.1-202.34.12-404.68.14-607.01,0-30.33-.06-60.66.08-90.99,0-2.05.88-4.69,2.3-6.05,27.28-25.96,54.71-51.77,82.11-77.6.2-.18.49-.26,1.17-.61,8.7,8.38,17.55,16.82,26.32,25.35,65.91,64.12,131.68,128.37,197.72,192.34,66.15,64.07,132.41,128.02,199.08,191.54,7.39,7.04,8.56,13.96,7.17,23.59-107.91-103.98-215.44-207.6-323.73-311.95v623.6c.38.3.75.6,1.13.9ZM234.29,98.44c-2.9,2.54-5.63,5.12-8.56,7.44-3.2,2.54-4.17,5.58-4.16,9.7.14,65.27.1,130.55.1,195.82,0,202.32,0,404.64,0,606.96,0,1.15-.3,2.77.32,3.36,4.1,3.92,8.41,7.63,12.37,11.14,4.48-2.44,5.19-5.7,5.07-9.83-.29-9.52-.07-19.06-.07-28.59.1-225.14.19-450.27.3-675.41.02-37.26,0-74.51.24-111.77.03-4.67-1.77-7.16-5.62-8.83ZM209.36,909.52V122.97c-1.29.62-2.26.86-2.91,1.44-3.85,3.48-7.44,7.27-11.49,10.49-2.97,2.36-3.57,5.05-3.57,8.59.07,162.18.07,324.36.08,486.55,0,86.22.01,172.44.1,258.65,0,1.82.44,4.17,1.6,5.36,5.02,5.16,10.39,9.99,16.2,15.47ZM251.7,915.33c1.92-1.49,3-2.21,3.94-3.08,2.75-2.55,5.19-5.51,8.21-7.67,3.79-2.7,4.91-5.81,4.89-10.49-.14-42.16.1-84.33.11-126.49.02-86.78-.06-173.57-.05-260.35.01-69.02.15-138.04.13-207.06-.02-55.59-.18-111.19-.32-166.78,0-1.09-.1-2.54-.77-3.19-5.18-5.04-10.52-9.92-16.15-15.18v800.3ZM281.72,886.75c4.69-4.5,8.37-8.74,12.75-12.03,4.36-3.28,5.23-7.14,5.23-12.26-.09-127.8-.02-255.6,0-383.4.01-104.84-.01-209.68-.05-314.52,0-1.38.14-3.25-.64-4.05-5.5-5.56-11.22-10.9-17.28-16.7v742.96ZM178.55,879.89V150.89c-5.17,4.77-9.97,8.9-14.37,13.42-1.4,1.44-2.4,3.93-2.43,5.95-.25,14.29-.23,28.59-.23,42.89,0,144.85,0,289.71,0,434.56,0,70.77-.02,141.53.02,212.3,0,1.64.06,3.84,1.05,4.83,5.05,5.1,10.42,9.88,15.97,15.05ZM312.13,173.52v683.04c3.77-3.47,6.85-6.71,10.35-9.41,5.6-4.32,8.3-9.57,7.23-16.75-.42-2.83-.1-5.77-.1-8.65.09-209.55.19-419.11.21-628.66,0-1.5-.69-3.4-1.73-4.44-5.09-5.07-10.4-9.9-15.97-15.13Z" fill="#000" stroke-width="0"/><path d="M665.9,756.83c-7.49-7.19-14.03-13.45-20.56-19.73-47.42-45.62-94.84-91.24-142.26-136.86-49.71-47.81-99.41-95.63-149.18-143.38-2.16-2.08-3.25-4.12-3.06-7.12.23-3.59.05-7.2.05-11.43,1.15.69,2.02,1.02,2.63,1.61,64.31,61.79,128.6,123.59,192.88,185.41,38.38,36.91,76.68,73.9,115.14,110.73,3.18,3.05,4.94,6.04,4.41,10.49-.35,2.95-.07,5.97-.07,10.28Z" fill="#000" stroke-width="0"/><path d="M350.89,275.92c7.62,7.28,14.38,13.69,21.1,20.15,76.97,74.01,153.93,148.03,230.9,222.05,19.55,18.8,39.04,37.68,58.7,56.37,3.07,2.91,4.74,5.82,4.26,10.1-.33,2.98-.06,6.02-.06,10.1-1.63-1.43-2.66-2.26-3.6-3.17-57.62-55.4-115.23-110.8-172.84-166.2-44.61-42.9-89.18-85.85-133.9-128.63-3.44-3.29-5.16-6.58-4.61-11.28.31-2.69.06-5.44.06-9.48Z" fill="#000" stroke-width="0"/><path d="M665.9,715.83c-1.95-1.68-3.13-2.62-4.22-3.66-37.63-36.22-75.23-72.47-112.88-108.67-57.31-55.09-114.65-110.15-171.98-165.21-7.39-7.1-14.7-14.28-22.22-21.22-2.77-2.55-4.12-5.25-3.74-9.05.31-3.12.06-6.29.06-10.09,1.23.85,2.06,1.27,2.71,1.89,73.7,70.74,147.4,141.49,221.07,212.26,29.14,27.99,58.18,56.07,87.38,84,2.85,2.72,4.3,5.44,3.89,9.4-.32,3.08-.06,6.22-.06,10.35Z" fill="#000" stroke-width="0"/><path d="M350.87,235.2c7.79,7.44,14.68,13.97,21.51,20.55,81.28,78.32,162.54,156.65,243.82,234.95,15.8,15.22,31.7,30.34,47.51,45.54.88.85,1.92,2.07,1.97,3.15.22,4.69.09,9.39.09,15.06-4.93-4.7-9.17-8.73-13.38-12.77-34.47-33.06-68.98-66.07-103.41-99.18-39.62-38.11-79.18-76.29-118.75-114.47-25.65-24.75-51.3-49.51-76.84-74.37-1.35-1.32-2.23-3.61-2.42-5.54-.37-3.83-.11-7.73-.11-12.93Z" fill="#000" stroke-width="0"/><path d="M350.9,357.06c4.89,4.64,8.93,8.46,12.94,12.31,77.5,74.34,154.99,148.68,232.48,223.04,21.77,20.89,43.42,41.89,65.3,62.66,3.23,3.06,4.85,6.11,4.33,10.54-.34,2.84-.06,5.76-.06,9.48-1.32-1.02-2.18-1.57-2.91-2.26-72.74-69.9-145.45-139.83-218.2-209.72-30.07-28.89-60.19-57.74-90.39-86.5-2.66-2.53-3.85-5.07-3.54-8.68.27-3.15.06-6.34.06-10.87Z" fill="#000" stroke-width="0"/><path d="M665.84,635.23c-10.64-10.23-20.3-19.51-29.97-28.8-64.02-61.48-128.05-122.96-192.07-184.44-29.66-28.49-59.27-57.04-89.02-85.45-2.85-2.72-4.36-5.4-3.94-9.38.33-3.09.07-6.24.07-10.29,1.61,1.35,2.58,2.06,3.44,2.89,73.18,70.3,146.34,140.61,219.53,210.9,29.05,27.9,58.11,55.77,87.29,83.53,3.39,3.22,5.41,6.42,4.74,11.24-.39,2.78-.07,5.67-.07,9.79Z" fill="#000" stroke-width="0"/><path d="M665.92,796.95c-12.41-11.91-23.85-22.88-35.28-33.86-54.11-52.01-108.21-104.01-162.31-156.03-36.1-34.71-72.01-69.62-108.44-103.98-7.34-6.92-11.1-13.87-8.33-24.01.65.46,1.58.96,2.31,1.66,54.96,52.8,109.91,105.6,164.84,158.44,47.64,45.83,95.21,91.74,142.93,137.49,3.21,3.07,4.88,6.07,4.35,10.5-.33,2.81-.06,5.68-.06,9.79Z" fill="#000" stroke-width="0"/><path d="M666.01,234.92c0,5.09.28,9.15-.13,13.14-.18,1.75-1.44,3.68-2.76,4.97-25.91,25.29-51.91,50.5-77.89,75.72-12.63,12.26-25.26,24.52-37.88,36.78-4.97,4.83-8.14,4.47-11.41-1.74-.5-.94.66-3.37,1.73-4.43,11.2-11.04,22.54-21.93,33.82-32.88,30.32-29.45,60.63-58.92,90.95-88.37.9-.87,1.86-1.67,3.56-3.2Z" fill="#000" stroke-width="0"/><path d="M351.13,793.73c-1.93-10.79,1.46-17.78,8.82-24.77,31.49-29.91,62.28-60.56,93.37-90.9,6.29-6.14,12.76-12.08,19.25-18.22,2.56,2.5,5,4.89,7.86,7.68-43.04,42.01-85.9,83.84-129.31,126.21Z" fill="#000" stroke-width="0"/><path d="M563.09,390.49c-2.3-2.84-4.45-5.5-6.89-8.52,36.11-35.08,72.56-70.49,109.77-106.63,0,5.6.2,10.17-.12,14.7-.09,1.3-1.53,2.66-2.62,3.72-16.54,16.1-33.14,32.14-49.71,48.21-15.43,14.96-30.84,29.95-46.27,44.91-1.12,1.08-2.35,2.05-4.15,3.61Z" fill="#000" stroke-width="0"/><path d="M450.97,639.98c3.01,2.63,5.6,4.89,8.36,7.31-36.12,35.25-71.89,70.16-108.66,106.06.61-8.56-1.12-15.4,5.92-22.02,30.46-28.68,60.17-58.14,90.16-87.31,1.44-1.4,2.9-2.76,4.23-4.03Z" fill="#000" stroke-width="0"/><path d="M584.46,410.19c-2.9-2.55-5.46-4.8-8.21-7.22,30.08-29.19,59.49-57.72,89.69-87.02,0,5.54.16,9.96-.11,14.36-.07,1.2-1.26,2.51-2.24,3.46-25.32,24.64-50.67,49.23-76.03,73.82-.92.89-1.96,1.65-3.1,2.59Z" fill="#000" stroke-width="0"/><path d="M350.84,712.45c0-5.42-.19-9.71.11-13.97.09-1.34,1.26-2.81,2.32-3.84,22.79-22.27,45.66-44.46,68.44-66.75,2.86-2.8,5.26-6.07,8.2-9.49,3.13,3.65,5.26,6.13,7.97,9.29-28.35,27.61-57.27,55.78-87.03,84.76Z" fill="#000" stroke-width="0"/><path d="M596.71,423.58c23.48-22.8,45.98-44.64,69.22-67.2,0,5.45.13,9.87-.09,14.27-.05,1.09-1.06,2.31-1.93,3.16-18.37,17.94-36.84,35.78-55.15,53.79-2.65,2.6-4.45,3-6.95.04-1.27-1.51-3.14-2.52-5.11-4.06Z" fill="#000" stroke-width="0"/><path d="M417.32,607.16c-22,21.4-43.78,42.59-66.44,64.62,0-5.6-.08-10.11.07-14.61.03-.85.83-1.81,1.51-2.47,18.4-17.91,36.82-35.79,55.25-53.67.5-.49,1.12-.86,1.95-1.48,2.57,2.55,5.07,5.04,7.65,7.61Z" fill="#000" stroke-width="0"/><path d="M665.95,396.97c0,5.3.12,9.56-.08,13.82-.05,1.13-.89,2.44-1.74,3.27-11.02,10.77-22.06,21.52-33.21,32.16-5.1,4.87-5.23,4.76-9.93-.49-.77-.85-1.45-1.77-2.47-3.03,15.59-15.03,31.14-30.02,47.44-45.73Z" fill="#000" stroke-width="0"/><path d="M388.75,578.95c2.81,2.69,5.28,5.06,8.07,7.73-15.2,14.74-30.13,29.21-45.99,44.58,0-5.52-.12-9.78.08-14.02.05-1.11.92-2.39,1.78-3.23,11.86-11.6,23.77-23.14,36.06-35.06Z" fill="#000" stroke-width="0"/><path d="M665.99,437.25c0,5.34.11,9.49-.07,13.62-.05,1.15-.64,2.56-1.45,3.37-5.51,5.47-11.15,10.8-17.17,16.58-2.71-2.51-5.28-4.9-8.26-7.65,8.82-8.48,17.45-16.78,26.95-25.91Z" fill="#000" stroke-width="0"/><path d="M375.73,566.64c-8.41,8.08-16.24,15.6-24.89,23.91,0-5.39-.05-9.66.04-13.92.02-.77.43-1.71.98-2.25,5.18-5.17,10.43-10.26,15.73-15.45,2.82,2.67,5.3,5.02,8.14,7.71Z" fill="#000" stroke-width="0"/><path d="M665.61,488.16c-1.97-2.31-3.5-4.1-5.24-6.14,1.26-1.19,2.95-2.78,5.24-4.94v11.08Z" fill="#000" stroke-width="0"/><path d="M350.95,551.18v-8.16c1.73,1.49,2.93,2.53,4.57,3.93-1.49,1.38-2.77,2.56-4.57,4.23Z" fill="#000" stroke-width="0"/></svg>