<?xml version="1.0" encoding="UTF-8"?><svg id="uuid-6b6c8bfb-d9da-4ab3-8cbc-bbdecadf7edc" xmlns="http://www.w3.org/2000/svg" viewBox="0 0 1024 1024"><path d="M695.63,168.53c-57.06,55.34-113.12,109.72-169.53,164.44-2.97-2.76-5.6-5.21-8.86-8.25,99.24-96.6,198.23-192.96,297.59-289.67,5.37,5.07,10.09,9.47,14.75,13.92,24.97,23.89,49.9,47.82,74.94,71.64,2.75,2.62,3.85,5.32,3.85,9.15-.11,240.15-.12,480.31-.15,720.46,0,15.94-.16,31.87.03,47.81.06,4.79-1.28,8.31-4.83,11.71-28.85,27.66-57.52,55.51-86.25,83.29-.67.65-1.45,1.18-2.48,2.01-6.55-6.19-13.07-12.21-19.45-18.38-56.53-54.71-112.95-109.52-169.56-164.15-59.58-57.5-119.37-114.79-178.98-172.27-34.5-33.27-68.57-66.99-103.45-99.87-7.02-6.61-3.77-13.57-5.26-20.37.41-.32.81-.63,1.22-.95,118.5,114.08,237.01,228.17,356.42,343.12V168.53ZM814.51,976.47c2.96-2.7,5.83-5.72,9.11-8.2,3.52-2.67,4.6-5.81,4.6-10.2-.1-121.92-.04-243.85-.05-365.77,0-174.04-.04-348.08-.09-522.12,0-1.52,0-3.54-.89-4.46-3.82-3.96-7.98-7.59-12.54-11.82-2.31,4.29-6.67,5.59-6.67,11.11.16,299.63.16,599.25,0,898.88,0,5.78,1.52,9.72,6.53,12.58ZM841.59,79.39v871.33c5.49-5.13,9.95-9.85,14.97-13.84,4.3-3.41,5.49-7.33,5.49-12.67-.12-109.63-.05-219.26-.04-328.89,0-163.97-.02-327.93.04-491.9,0-3.45-.79-5.99-3.45-8.31-5.64-4.91-11-10.14-17.01-15.73ZM794.47,957.44V73.34c-2.89,3.11-4.59,5.9-7.07,7.44-10.79,6.69-12.29,16.32-12.27,28.33.34,226.63.22,453.26.22,679.89,0,48.77.04,97.54.18,146.31,0,2,.59,4.55,1.88,5.89,5.33,5.47,11.04,10.57,17.06,16.24ZM761.29,925.29V106.49c-.59-.46-1.18-.92-1.77-1.38-4.62,5.22-8.98,10.7-13.97,15.54-2.53,2.45-3.62,4.68-3.62,8.17.09,199.04.09,398.08.11,597.12,0,58.96.03,117.93.12,176.89,0,1.92.24,4.45,1.42,5.66,5.53,5.65,11.44,10.93,17.7,16.8ZM875.15,918.41c4.61-4.41,8.07-8.48,12.26-11.55,6.08-4.45,7.25-10.08,7.24-17.25-.14-251.11-.1-502.22.04-753.34,0-4.76-1.3-8-4.88-11.01-4.89-4.11-9.34-8.73-14.67-13.79v806.94ZM728.22,892.91V138.6c-1.54,1.03-2.87,1.71-3.93,2.69-2.11,1.93-3.84,4.35-6.14,6-7.33,5.24-8.68,12.19-8.66,20.94.26,182.11.19,364.23.19,546.34,0,52.26,0,104.52.06,156.78,0,1.79.06,4.19,1.13,5.27,5.34,5.39,11.04,10.43,17.36,16.29Z" fill="#000" stroke-width="0"/><path d="M329.18,858.61c55.44-53.93,110.88-107.86,166.03-161.5,3.38,2.99,6.22,5.5,9.27,8.2-98.38,96.67-196.36,192.95-294.71,289.6-8.15-7.66-16.15-15.08-24.04-22.6-21.9-20.87-43.69-41.86-65.7-62.61-3.2-3.02-4.37-6.07-4.37-10.38.11-223.27.13-446.54.16-669.81,0-33.47-.06-66.93.09-100.4.01-2.26.97-5.18,2.54-6.67,30.1-28.64,60.37-57.12,90.6-85.63.22-.2.54-.29,1.29-.68,9.6,9.24,19.37,18.56,29.04,27.97,72.72,70.75,145.3,141.65,218.18,212.24,72.99,70.7,146.11,141.27,219.68,211.36,8.16,7.77,9.45,15.41,7.91,26.03-119.07-114.74-237.73-229.08-357.22-344.22v688.11c.42.33.83.66,1.25.99ZM209.52,55.19c-3.2,2.8-6.21,5.65-9.44,8.21-3.53,2.8-4.6,6.15-4.59,10.7.16,72.03.12,144.05.12,216.08,0,223.25,0,446.5.01,669.74,0,1.26-.33,3.06.35,3.71,4.53,4.33,9.28,8.42,13.65,12.3,4.94-2.7,5.73-6.29,5.59-10.85-.32-10.51-.08-21.03-.08-31.55.11-248.42.21-496.85.33-745.27.02-41.11-.01-82.22.26-123.33.03-5.15-1.95-7.9-6.2-9.74ZM182.02,950.17V82.25c-1.43.69-2.5.94-3.22,1.59-4.25,3.84-8.21,8.03-12.68,11.57-3.28,2.6-3.94,5.58-3.94,9.47.08,178.96.07,357.92.09,536.88,0,95.14.02,190.27.11,285.41,0,2.01.48,4.6,1.77,5.92,5.54,5.7,11.46,11.02,17.87,17.07ZM228.74,956.59c2.12-1.64,3.31-2.44,4.35-3.4,3.03-2.82,5.72-6.08,9.06-8.46,4.18-2.98,5.42-6.41,5.4-11.57-.15-46.53.11-93.05.12-139.58.02-95.76-.07-191.52-.05-287.28.01-76.16.17-152.32.15-228.48-.02-61.34-.2-122.69-.35-184.03,0-1.2-.11-2.81-.85-3.53-5.72-5.56-11.6-10.95-17.82-16.75v883.09ZM261.87,925.04c5.18-4.97,9.23-9.64,14.07-13.27,4.81-3.62,5.78-7.87,5.77-13.53-.1-141.02-.02-282.04,0-423.07.01-115.69-.01-231.37-.05-347.06,0-1.52.15-3.59-.71-4.47-6.06-6.14-12.38-12.02-19.07-18.43v819.82ZM148.02,917.47V113.06c-5.71,5.26-11.01,9.82-15.85,14.81-1.55,1.59-2.65,4.33-2.68,6.57-.27,15.77-.25,31.55-.25,47.33,0,159.84,0,319.68,0,479.52,0,78.09-.02,156.17.02,234.26,0,1.81.07,4.24,1.15,5.33,5.58,5.62,11.5,10.91,17.62,16.61ZM295.42,138.03v753.7c4.16-3.83,7.56-7.41,11.42-10.39,6.18-4.76,9.16-10.56,7.98-18.48-.46-3.12-.11-6.36-.11-9.55.1-231.23.21-462.46.23-693.69,0-1.66-.76-3.75-1.9-4.9-5.61-5.59-11.48-10.92-17.62-16.7Z" fill="#000" stroke-width="0"/><path d="M685.79,781.68c-8.26-7.93-15.49-14.84-22.69-21.77-52.33-50.34-104.65-100.68-156.97-151.01-54.85-52.76-109.69-105.52-164.61-158.21-2.39-2.29-3.58-4.54-3.37-7.86.25-3.96.06-7.95.06-12.61,1.27.76,2.23,1.12,2.91,1.78,70.96,68.18,141.91,136.37,212.83,204.59,42.35,40.73,84.62,81.54,127.05,122.18,3.51,3.36,5.45,6.66,4.87,11.58-.38,3.25-.07,6.59-.07,11.34Z" fill="#000" stroke-width="0"/><path d="M338.19,251.03c8.41,8.03,15.87,15.11,23.28,22.24,84.93,81.67,169.86,163.34,254.78,245.02,21.58,20.75,43.08,41.58,64.78,62.2,3.38,3.22,5.23,6.42,4.7,11.15-.36,3.28-.07,6.64-.07,11.15-1.8-1.58-2.93-2.5-3.98-3.5-63.58-61.13-127.15-122.26-190.72-183.4-49.23-47.34-98.41-94.73-147.76-141.94-3.8-3.63-5.69-7.26-5.08-12.45.35-2.96.06-6,.06-10.46Z" fill="#000" stroke-width="0"/><path d="M685.79,736.45c-2.15-1.86-3.46-2.89-4.65-4.04-41.53-39.96-83.01-79.97-124.56-119.91-63.23-60.79-126.51-121.54-189.77-182.3-8.15-7.83-16.22-15.75-24.52-23.42-3.05-2.82-4.54-5.79-4.13-9.98.34-3.44.07-6.94.07-11.13,1.36.94,2.27,1.4,2.98,2.08,81.33,78.06,162.65,156.13,243.94,234.22,32.15,30.88,64.2,61.88,96.42,92.69,3.14,3.01,4.75,6,4.29,10.37-.36,3.4-.07,6.86-.07,11.42Z" fill="#000" stroke-width="0"/><path d="M338.17,206.09c8.6,8.21,16.2,15.42,23.73,22.68,89.68,86.42,179.35,172.85,269.04,259.26,17.43,16.79,34.98,33.47,52.42,50.25.97.94,2.12,2.28,2.18,3.48.24,5.17.1,10.36.1,16.62-5.44-5.19-10.11-9.63-14.77-14.09-38.04-36.47-76.12-72.91-114.1-109.44-43.72-42.05-87.37-84.19-131.03-126.31-28.31-27.31-56.6-54.63-84.79-82.07-1.49-1.45-2.46-3.99-2.67-6.12-.41-4.23-.12-8.52-.12-14.27Z" fill="#000" stroke-width="0"/><path d="M338.2,340.56c5.39,5.13,9.86,9.33,14.28,13.58,85.51,82.03,171.03,164.06,256.53,246.11,24.02,23.05,47.92,46.22,72.05,69.15,3.56,3.38,5.35,6.74,4.77,11.63-.37,3.14-.07,6.35-.07,10.46-1.46-1.12-2.41-1.73-3.21-2.5-80.26-77.13-160.5-154.3-240.78-231.42-33.18-31.88-66.42-63.71-99.74-95.45-2.94-2.8-4.25-5.6-3.9-9.58.3-3.47.06-6.99.06-11.99Z" fill="#000" stroke-width="0"/><path d="M685.72,647.5c-11.74-11.28-22.4-21.53-33.07-31.78-70.65-67.84-141.3-135.68-211.94-203.52-32.73-31.44-65.41-62.94-98.23-94.29-3.14-3-4.81-5.96-4.35-10.35.36-3.41.07-6.89.07-11.35,1.78,1.49,2.84,2.28,3.79,3.19,80.75,77.57,161.48,155.16,242.24,232.72,32.05,30.78,64.12,61.54,96.32,92.17,3.74,3.56,5.97,7.09,5.23,12.41-.43,3.07-.08,6.25-.08,10.8Z" fill="#000" stroke-width="0"/><path d="M685.81,825.95c-13.69-13.14-26.32-25.25-38.93-37.37-59.7-57.39-119.41-114.77-179.1-172.17-39.84-38.3-79.45-76.83-119.66-114.74-8.1-7.64-12.24-15.3-9.2-26.49.71.51,1.74,1.06,2.55,1.83,60.64,58.26,121.29,116.52,181.89,174.82,52.57,50.57,105.06,101.23,157.71,151.72,3.54,3.39,5.38,6.7,4.8,11.59-.37,3.1-.07,6.27-.07,10.8Z" fill="#000" stroke-width="0"/><path d="M685.91,205.78c0,5.62.31,10.1-.14,14.5-.2,1.93-1.59,4.07-3.04,5.49-28.6,27.91-57.28,55.72-85.95,83.55-13.93,13.53-27.87,27.06-41.8,40.59-5.49,5.33-8.98,4.94-12.59-1.92-.55-1.04.73-3.72,1.91-4.88,12.35-12.18,24.88-24.2,37.32-36.29,33.46-32.5,66.9-65.01,100.36-97.52.99-.96,2.06-1.85,3.93-3.53Z" fill="#000" stroke-width="0"/><path d="M338.45,822.41c-2.13-11.9,1.61-19.62,9.73-27.33,34.75-33,68.72-66.83,103.03-100.31,6.94-6.77,14.08-13.33,21.24-20.1,2.83,2.76,5.52,5.39,8.68,8.47-47.49,46.36-94.79,92.52-142.68,139.27Z" fill="#000" stroke-width="0"/><path d="M572.34,377.45c-2.54-3.14-4.91-6.07-7.61-9.4,39.85-38.71,80.07-77.78,121.12-117.66,0,6.18.22,11.22-.14,16.22-.1,1.44-1.69,2.93-2.89,4.1-18.26,17.76-36.57,35.47-54.85,53.2-17.02,16.51-34.03,33.05-51.06,49.56-1.23,1.2-2.59,2.26-4.58,3.99Z" fill="#000" stroke-width="0"/><path d="M448.63,652.74c3.32,2.9,6.17,5.4,9.22,8.06-39.85,38.9-79.32,77.42-119.9,117.03.68-9.44-1.23-16.99,6.53-24.3,33.61-31.64,66.39-64.15,99.48-96.35,1.58-1.54,3.2-3.05,4.67-4.45Z" fill="#000" stroke-width="0"/><path d="M595.92,399.18c-3.2-2.81-6.02-5.29-9.06-7.96,33.19-32.21,65.65-63.7,98.96-96.02,0,6.11.18,10.99-.12,15.84-.08,1.33-1.39,2.77-2.47,3.82-27.94,27.18-55.91,54.32-83.9,81.46-1.01.98-2.17,1.82-3.42,2.86Z" fill="#000" stroke-width="0"/><path d="M338.14,732.72c0-5.98-.21-10.71.12-15.41.1-1.48,1.39-3.1,2.56-4.24,25.15-24.58,50.39-49.06,75.52-73.66,3.16-3.09,5.81-6.7,9.04-10.48,3.45,4.02,5.8,6.77,8.79,10.25-31.29,30.47-63.19,61.55-96.03,93.53Z" fill="#000" stroke-width="0"/><path d="M609.44,413.96c25.91-25.16,50.74-49.26,76.38-74.15,0,6.02.14,10.89-.1,15.75-.06,1.2-1.17,2.55-2.13,3.48-20.27,19.79-40.65,39.48-60.85,59.35-2.92,2.87-4.91,3.31-7.66.05-1.41-1.67-3.46-2.79-5.64-4.48Z" fill="#000" stroke-width="0"/><path d="M411.49,616.53c-24.27,23.61-48.31,46.99-73.31,71.31,0-6.18-.09-11.16.08-16.13.03-.93.92-1.99,1.67-2.73,20.3-19.76,40.63-39.5,60.97-59.22.56-.54,1.24-.95,2.15-1.63,2.83,2.81,5.59,5.56,8.45,8.4Z" fill="#000" stroke-width="0"/><path d="M685.84,384.59c0,5.85.13,10.55-.09,15.25-.06,1.24-.98,2.69-1.92,3.61-12.16,11.88-24.34,23.75-36.64,35.49-5.63,5.37-5.77,5.25-10.96-.54-.84-.94-1.6-1.96-2.73-3.34,17.21-16.59,34.36-33.12,52.34-50.46Z" fill="#000" stroke-width="0"/><path d="M379.96,585.4c3.1,2.97,5.83,5.58,8.9,8.53-16.78,16.26-33.25,32.23-50.75,49.19,0-6.09-.14-10.79.09-15.47.06-1.23,1.02-2.64,1.96-3.56,13.08-12.8,26.23-25.53,39.79-38.69Z" fill="#000" stroke-width="0"/><path d="M685.89,429.04c0,5.89.12,10.47-.07,15.03-.05,1.27-.7,2.82-1.61,3.71-6.08,6.03-12.31,11.92-18.94,18.29-2.98-2.77-5.83-5.4-9.11-8.45,9.73-9.36,19.25-18.52,29.73-28.59Z" fill="#000" stroke-width="0"/><path d="M365.6,571.82c-9.28,8.92-17.92,17.22-27.46,26.38,0-5.95-.05-10.66.05-15.36.02-.85.48-1.88,1.08-2.49,5.72-5.7,11.51-11.32,17.35-17.05,3.11,2.95,5.85,5.54,8.98,8.51Z" fill="#000" stroke-width="0"/><path d="M685.47,485.23c-2.18-2.55-3.86-4.52-5.78-6.77,1.39-1.31,3.25-3.07,5.78-5.45v12.23Z" fill="#000" stroke-width="0"/><path d="M338.25,554.76v-9.01c1.91,1.65,3.24,2.79,5.04,4.34-1.64,1.52-3.05,2.83-5.04,4.67Z" fill="#000" stroke-width="0"/></svg>